<?xml version="1.0" standalone="no"?>
<!DOCTYPE svg PUBLIC "-//W3C//DTD SVG 20010904//EN"
 "http://www.w3.org/TR/2001/REC-SVG-20010904/DTD/svg10.dtd">
<svg version="1.0" xmlns="http://www.w3.org/2000/svg"
 width="1024.000000pt" height="1024.000000pt" viewBox="0 0 1024.000000 1024.000000"
 preserveAspectRatio="xMidYMid meet">

<g transform="translate(0.000000,1024.000000) scale(0.100000,-0.100000)"
fill="#000000" stroke="none">
<path d="M0 5120 l0 -5120 5120 0 5120 0 0 5120 0 5120 -5120 0 -5120 0 0
-5120z m7211 2152 c84 -22 169 -73 228 -138 25 -28 85 -120 132 -205 48 -85
160 -282 249 -439 89 -157 219 -386 289 -509 183 -325 205 -346 506 -471 197
-82 218 -95 275 -156 81 -88 82 -95 96 -489 7 -192 13 -407 13 -478 l1 -127
40 6 c35 6 43 3 70 -24 l30 -30 0 -208 c0 -192 -1 -209 -21 -241 -44 -71 -45
-71 -485 -65 l-201 2 -6 98 c-15 242 -146 513 -328 676 -109 98 -225 164 -369
211 -76 25 -104 29 -256 33 -131 3 -188 1 -247 -12 -336 -69 -614 -324 -733
-673 -21 -61 -28 -105 -33 -203 l-6 -125 -1346 -3 -1346 -2 -6 102 c-21 358
-261 704 -586 844 -132 57 -181 67 -371 71 -153 4 -186 2 -264 -16 -280 -67
-520 -264 -651 -535 -58 -120 -86 -228 -94 -356 l-6 -105 -235 -8 c-371 -12
-406 -7 -450 66 -18 29 -20 51 -20 240 l0 209 29 29 c23 23 39 29 70 29 l41 0
0 1303 c0 1425 -3 1342 57 1461 35 68 127 157 201 195 126 64 -80 59 2922 60
2563 0 2749 -1 2811 -17z m-4236 -2792 c152 -47 298 -138 381 -238 69 -83 149
-244 170 -342 35 -158 13 -365 -55 -513 -86 -192 -251 -342 -451 -413 -62 -22
-98 -27 -207 -31 -163 -6 -250 11 -368 71 -272 140 -425 379 -441 691 -5 86
-2 114 20 199 30 117 88 238 151 318 99 126 275 234 450 274 84 19 259 11 350
-16z m4642 6 c137 -36 292 -125 380 -218 173 -185 253 -464 200 -704 -59 -264
-200 -445 -436 -558 -113 -54 -198 -69 -354 -64 -149 6 -224 27 -351 100 -141
82 -290 256 -335 390 -52 156 -66 347 -36 478 21 90 104 252 167 329 93 113
274 221 432 257 76 17 247 12 333 -10z"/>
<path d="M1820 6857 c-19 -12 -43 -38 -54 -57 -20 -34 -21 -52 -24 -520 -4
-544 -2 -567 54 -621 l35 -34 622 -3 c607 -2 623 -2 655 18 18 11 41 34 52 52
19 32 20 52 20 553 0 580 2 565 -69 612 l-34 23 -612 0 -612 0 -33 -23z"/>
<path d="M3559 6857 c-18 -12 -44 -38 -56 -56 l-23 -34 0 -516 c0 -575 -2
-561 69 -608 l34 -23 607 0 607 0 34 23 c71 47 70 31 67 617 l-3 525 -22 31
c-47 66 -28 64 -686 64 l-594 0 -34 -23z"/>
<path d="M5314 6861 c-43 -26 -72 -70 -84 -128 -7 -32 -10 -216 -8 -524 3
-457 4 -475 24 -509 11 -19 35 -45 54 -57 33 -23 36 -23 401 -23 l369 0 0 630
0 630 -362 0 c-339 0 -365 -1 -394 -19z"/>
<path d="M6250 6250 l0 -630 711 0 c635 0 715 2 745 16 49 23 77 68 81 128 4
51 2 55 -237 481 -317 564 -317 564 -368 600 l-44 30 -444 3 -444 3 0 -631z"/>
<path d="M8540 5057 c-121 -64 -116 -252 9 -304 47 -20 133 -13 168 13 54 40
68 70 68 142 0 81 -25 124 -89 153 -55 25 -104 24 -156 -4z"/>
<path d="M2649 4077 c-143 -60 -230 -173 -245 -317 -17 -166 72 -322 225 -397
49 -24 68 -28 146 -28 77 0 98 4 148 27 75 35 160 117 194 187 25 50 28 67 28
161 0 92 -3 112 -26 160 -36 77 -106 150 -181 190 -55 30 -74 34 -148 37 -72
3 -94 0 -141 -20z"/>
<path d="M7315 4082 c-73 -31 -100 -50 -149 -101 -179 -193 -123 -503 114
-619 47 -23 67 -27 145 -27 77 0 98 4 148 27 162 76 245 214 235 387 -6 100
-35 159 -117 242 -83 83 -145 109 -259 108 -49 0 -91 -6 -117 -17z"/>
</g>
</svg>
